<svg width="16" height="16" viewBox="0 0 16 16" fill="none" xmlns="http://www.w3.org/2000/svg">
<path d="M12.7134 9.25317L8.66671 13.2932V14.6665H10.04L14.08 10.6198L12.7134 9.25317ZM15.1334 9.05317L14.28 8.19984C14.248 8.16442 14.2089 8.13606 14.1653 8.11655C14.1217 8.09704 14.0745 8.08681 14.0267 8.0865C13.9267 8.09317 13.8334 8.1265 13.7667 8.19984L13.1 8.8665L14.4667 10.1998L15.1334 9.53317C15.26 9.39984 15.26 9.1865 15.1334 9.05317ZM7.33337 11.9998H2.66671V5.33317L8.00004 8.6665L13.3334 5.33317V6.6665H14.6667V3.99984C14.6667 3.2665 14.0667 2.6665 13.3334 2.6665H2.66671C1.93337 2.6665 1.33337 3.2665 1.33337 3.99984V11.9998C1.33337 12.7332 1.93337 13.3332 2.66671 13.3332H7.33337V11.9998ZM13.3334 3.99984L8.00004 7.33317L2.66671 3.99984H13.3334Z" fill="#70D793"/>
</svg>
