<svg width="42" height="40" viewBox="0 0 42 40" fill="none" xmlns="http://www.w3.org/2000/svg">
<path d="M34.9268 19.1769C34.9268 21.0658 34.472 22.4358 33.703 23.5383C32.9296 24.647 31.8259 25.5039 30.4933 26.345C29.8698 26.7385 29.1964 27.1278 28.4883 27.5372C26.209 28.8549 23.5692 30.381 21.0719 32.9265C13.5262 32.8701 7.42676 26.7358 7.42676 19.1769C7.42676 17.2843 7.85433 15.803 8.59448 14.5644C9.33647 13.3228 10.4014 12.3104 11.6985 11.3698C12.9171 10.4862 14.3277 9.67461 15.8552 8.7959C15.9566 8.73756 16.0585 8.67894 16.1609 8.61997C17.7811 7.687 19.5176 6.67355 21.2569 5.42711C28.8139 5.47025 34.9268 11.6097 34.9268 19.1769Z" stroke="#70D793" stroke-width="0.5"/>
<path d="M30.1693 28.7065C28.938 30.1389 27.7 30.8812 26.3981 31.216C25.089 31.5526 23.6934 31.4829 22.1346 31.2519C21.4053 31.1439 20.6408 31.0001 19.837 30.8489C17.2495 30.3623 14.2529 29.7987 10.6997 30.1009C5.0146 25.1392 4.38828 16.5112 9.31593 10.7793C10.5497 9.34413 11.8396 8.49957 13.2083 8.04286C14.5803 7.58502 16.0479 7.51151 17.6447 7.64384C19.1447 7.76815 20.7435 8.07237 22.4746 8.40177C22.5895 8.42363 22.705 8.44561 22.8211 8.46765C24.658 8.81643 26.6354 9.17991 28.7669 9.36859C34.4693 14.3277 35.1024 22.9682 30.1693 28.7065Z" stroke="#70D793" stroke-width="0.5"/>
<path d="M28.8447 32.2536C27.1434 33.0744 25.7119 33.2601 24.3848 33.0466C23.0502 32.8319 21.7988 32.2102 20.4622 31.3755C19.8369 30.9849 19.1936 30.5476 18.5172 30.0877C16.3398 28.6075 13.8183 26.8932 10.4405 25.75C7.21232 18.9296 10.0867 10.7704 16.8946 7.48573C18.5991 6.66332 20.119 6.4047 21.5562 6.53311C22.9969 6.66183 24.3715 7.18099 25.7823 7.94051C27.1077 8.65401 28.4516 9.57188 29.9068 10.5657C30.0034 10.6317 30.1004 10.698 30.198 10.7646C31.7424 11.8185 33.4097 12.942 35.2882 13.9669C38.5332 20.7919 35.66 28.9652 28.8447 32.2536Z" stroke="#70D793" stroke-width="0.5"/>
<path d="M27.8648 15.9049L27.6848 19.7569C27.6848 20.9209 27.8528 22.0249 28.1888 23.0689C27.8528 23.2129 27.4688 23.2849 27.0368 23.2849C26.0168 23.2849 25.5068 22.7149 25.5068 21.5749C25.5068 21.0589 25.5728 20.1949 25.7048 18.9829C25.8368 17.7589 25.9028 16.9909 25.9028 16.6789C25.9028 16.0789 25.6568 15.7789 25.1648 15.7789C24.6248 15.7789 23.9768 16.3309 23.2208 17.4349C22.4768 18.5389 22.1048 19.4029 22.1048 20.0269C22.1648 20.9749 22.3328 21.9169 22.6088 22.8529C22.1528 22.9969 21.7688 23.0689 21.4568 23.0689C20.4368 23.0689 19.9268 22.4989 19.9268 21.3589C19.9268 20.8789 19.9928 20.0749 20.1248 18.9469C20.2568 17.8189 20.3228 17.1109 20.3228 16.8229C20.3228 16.2229 20.0528 15.9229 19.5128 15.9229C19.1408 15.9229 18.7148 16.1989 18.2348 16.7509C17.7548 17.3029 17.3468 17.9149 17.0108 18.5869C16.6868 19.2469 16.5128 19.7749 16.4888 20.1709C16.5488 21.2029 16.6688 22.1329 16.8488 22.9609C16.4648 23.1049 16.0628 23.1769 15.6428 23.1769C15.2348 23.1769 14.8988 23.0809 14.6348 22.8889C14.3828 22.6849 14.2568 22.4089 14.2568 22.0609C14.2568 21.7009 14.3108 21.0649 14.4188 20.1529C14.5268 19.2289 14.5808 18.3169 14.5808 17.4169C14.5808 16.5049 14.4428 15.4609 14.1668 14.2849C14.5508 14.1409 14.9588 14.0689 15.3908 14.0689C15.8228 14.0689 16.1708 14.1949 16.4348 14.4469C16.7108 14.6989 16.8488 15.0349 16.8488 15.4549C16.8488 15.6709 16.8068 16.1989 16.7228 17.0389C17.1668 16.2469 17.7308 15.5629 18.4148 14.9869C19.0988 14.3989 19.7828 14.1049 20.4668 14.1049C21.6788 14.1049 22.2848 14.7529 22.2848 16.0489C22.2848 16.3729 22.2668 16.7329 22.2308 17.1289C22.6748 16.2889 23.2448 15.5509 23.9408 14.9149C24.6488 14.2789 25.3508 13.9609 26.0468 13.9609C27.2588 13.9609 27.8648 14.6089 27.8648 15.9049Z" fill="#70D793"/>
</svg>
