<svg width="42" height="40" viewBox="0 0 42 40" fill="none" xmlns="http://www.w3.org/2000/svg">
<path d="M34.9269 19.1769C34.9269 21.0659 34.4721 22.4358 33.7031 23.5384C32.9298 24.6471 31.8261 25.504 30.4935 26.345C29.8699 26.7385 29.1966 27.1278 28.4884 27.5372C26.2091 28.855 23.5694 30.3811 21.072 32.9265C13.5264 32.8702 7.42688 26.7359 7.42688 19.1769C7.42688 17.2844 7.85445 15.8031 8.59461 14.5645C9.3366 13.3229 10.4015 12.3104 11.6986 11.3698C12.9172 10.4862 14.3279 9.67468 15.8553 8.79596C15.9567 8.73762 16.0586 8.679 16.161 8.62003C17.7813 7.68707 19.5177 6.67361 21.257 5.42717C28.8141 5.47031 34.9269 11.6098 34.9269 19.1769Z" stroke="white" stroke-width="0.5"/>
<path d="M30.1696 28.7065C28.9382 30.1389 27.7003 30.8812 26.3984 31.216C25.0892 31.5526 23.6936 31.4829 22.1348 31.2519C21.4055 31.1439 20.6411 31.0001 19.8372 30.8489C17.2497 30.3623 14.2531 29.7987 10.7 30.1009C5.01484 25.1392 4.38852 16.5112 9.31617 10.7793C10.5499 9.34413 11.8398 8.49957 13.2085 8.04286C14.5806 7.58502 16.0481 7.51151 17.6449 7.64384C19.145 7.76815 20.7437 8.07237 22.4748 8.40177C22.5898 8.42363 22.7053 8.44561 22.8213 8.46765C24.6582 8.81643 26.6356 9.17991 28.7671 9.36859C34.4695 14.3277 35.1026 22.9682 30.1696 28.7065Z" stroke="white" stroke-width="0.5"/>
<path d="M28.8447 32.2536C27.1434 33.0744 25.7119 33.2602 24.3848 33.0466C23.0502 32.8319 21.7988 32.2103 20.4622 31.3755C19.8369 30.985 19.1936 30.5477 18.5172 30.0878C16.3398 28.6075 13.8183 26.8932 10.4405 25.7501C7.21232 18.9296 10.0867 10.7705 16.8946 7.48579C18.5991 6.66339 20.119 6.40477 21.5562 6.53317C22.9969 6.66189 24.3715 7.18105 25.7823 7.94057C27.1077 8.65407 28.4516 9.57194 29.9068 10.5658C30.0034 10.6318 30.1004 10.6981 30.198 10.7647C31.7424 11.8185 33.4097 12.9421 35.2882 13.967C38.5332 20.7919 35.66 28.9653 28.8447 32.2536Z" stroke="white" stroke-width="0.5"/>
<path d="M27.8649 15.9049L27.6849 19.7569C27.6849 20.9209 27.8529 22.0249 28.1889 23.0689C27.8529 23.2129 27.4689 23.2849 27.0369 23.2849C26.0169 23.2849 25.5069 22.7149 25.5069 21.5749C25.5069 21.0589 25.5729 20.1949 25.7049 18.9829C25.8369 17.7589 25.9029 16.9909 25.9029 16.6789C25.9029 16.0789 25.6569 15.7789 25.1649 15.7789C24.6249 15.7789 23.9769 16.3309 23.2209 17.4349C22.4769 18.5389 22.1049 19.4029 22.1049 20.0269C22.1649 20.9749 22.3329 21.9169 22.6089 22.8529C22.1529 22.9969 21.7689 23.0689 21.4569 23.0689C20.4369 23.0689 19.9269 22.4989 19.9269 21.3589C19.9269 20.8789 19.9929 20.0749 20.1249 18.9469C20.2569 17.8189 20.3229 17.1109 20.3229 16.8229C20.3229 16.2229 20.0529 15.9229 19.5129 15.9229C19.1409 15.9229 18.7149 16.1989 18.2349 16.7509C17.7549 17.3029 17.3469 17.9149 17.0109 18.5869C16.6869 19.2469 16.5129 19.7749 16.4889 20.1709C16.5489 21.2029 16.6689 22.1329 16.8489 22.9609C16.4649 23.1049 16.0629 23.1769 15.6429 23.1769C15.2349 23.1769 14.8989 23.0809 14.6349 22.8889C14.3829 22.6849 14.2569 22.4089 14.2569 22.0609C14.2569 21.7009 14.3109 21.0649 14.4189 20.1529C14.5269 19.2289 14.5809 18.3169 14.5809 17.4169C14.5809 16.5049 14.4429 15.4609 14.1669 14.2849C14.5509 14.1409 14.9589 14.0689 15.3909 14.0689C15.8229 14.0689 16.1709 14.1949 16.4349 14.4469C16.7109 14.6989 16.8489 15.0349 16.8489 15.4549C16.8489 15.6709 16.8069 16.1989 16.7229 17.0389C17.1669 16.2469 17.7309 15.5629 18.4149 14.9869C19.0989 14.3989 19.7829 14.1049 20.4669 14.1049C21.6789 14.1049 22.2849 14.7529 22.2849 16.0489C22.2849 16.3729 22.2669 16.7329 22.2309 17.1289C22.6749 16.2889 23.2449 15.5509 23.9409 14.9149C24.6489 14.2789 25.3509 13.9609 26.0469 13.9609C27.2589 13.9609 27.8649 14.6089 27.8649 15.9049Z" fill="white"/>
</svg>
