<svg width="269" height="354" viewBox="0 0 269 354" fill="none" xmlns="http://www.w3.org/2000/svg">
<path d="M159.474 27.0868C275.213 18.2882 240.533 255.155 178.533 278.655C107.978 305.398 -27.651 264.001 23.4744 221.087C48.0001 200.5 31.0001 220.5 77.5 172C128.688 118.61 98.1622 27.0868 159.474 27.0868Z" fill="#D6FFE4"/>
<path d="M129.229 134.232V127.633L126.61 123.82L122.962 120.828H117.865L114.965 122.755L112.814 122.099H107.95L103.6 122.755L98.5024 125.952L95.3689 131.445V134.847L96.351 136.527L93.4046 138.454L90.0373 143.332V145.463L93.4046 148.209L100.701 150.546L108.932 149.48L116.649 146.529C119.72 144.616 126.012 140.618 126.61 139.929C127.209 139.241 128.606 135.844 129.229 134.232Z" fill="#E2C3AD"/>
<path d="M119.431 131.772L117.557 128.648L115.846 130.563L110.998 136.138L105.091 138.052H99.8352L103.42 139.597H110.998L117.557 136.138L119.431 131.772Z" fill="#A2846E"/>
<path d="M155.989 146.583L157.168 139.552L148.917 135.123L147.467 126.616L138.854 120.828L129.47 128.287L127.974 137.066L123.124 142.97C122.58 143.501 121.492 144.765 121.492 145.573C121.492 146.381 118.832 149.535 117.503 151.011H110.703H101.092L90.9443 155.238L91.4368 156.216L93.7941 159.829L98.5086 167.093L101.092 170.706H110.703L116.324 173.502H123.124C128.518 174.318 139.914 175.864 142.344 175.522C145.381 175.095 157.168 170.706 158.8 170.706C160.105 170.706 161.852 169.1 162.562 168.297L171.22 173.502V170.706L169.362 167.093V164.879L162.562 158.042L158.8 153.808L155.989 146.583Z" fill="#15325E"/>
<path d="M184.238 97.6508L186.617 95.4917L182.248 92.6771H177.538L174.139 93.641V95.4917L169.964 97.3809L170.789 99.1159L168.75 100.311L165.4 102.972L164.04 104.976L161.515 105.67L157.971 108.446L154.815 110.336L151.077 113.69L146.901 116.35L138.793 120.741V122.481L141.512 124.1L146.901 128.495L148.066 134.973L153.456 137.749L156.903 140.885L159.67 135.32L162.875 132.929L166.905 128.495L172.78 122.481L178.703 115.271L182.248 110.336L185.743 105.67V102.972L184.238 100.311V97.6508Z" fill="#15325E"/>
<path d="M182.046 87.8625H185.033L186.783 89.365L185.959 89.8658L185.033 89.365V92.7551L185.959 90.4822L187.865 89.8658H189.101L186.783 95.6829L185.959 95.1436L183.694 93.6412L178.802 92.7551L173.704 93.6412L175.455 92.7551V91.9846L176.845 91.3682L177.617 90.4822L180.347 89.8658L182.046 87.8625Z" fill="#A1504C"/>
<path d="M97.0464 171.146L101.235 170.519V166.234L95.571 160.552L91.1447 155.237L83.5296 157.693L76.6284 161.689L71.9165 166.234H69.2036L66.0148 169.643L58.8756 173.053L52.2124 179.321L46.3106 182.547H43.5977V185.186L39.6474 188.046H40.8849H43.5977L46.3106 190.502L47.5481 192.775L49.7374 190.502H52.2124L58.8756 186.726L69.2036 182.547L78.8177 178.001L85.243 176.095L97.0464 171.146Z" fill="#15325E"/>
<path d="M173.358 179.545L171.433 172.352L164.102 167.75L159.84 170.147L151.272 172.352L139.908 174.363L123.779 172.352L119.518 173.357L113.836 174.363L105.038 177.573L101.235 183.374V189.988L105.038 194.783L110.491 206.386L119.518 214.005L117.135 216.789L121.854 219.187H129.003L137.067 216.789V214.005C136.426 212.728 134.859 209.696 133.722 207.778C132.302 205.38 127.582 199.579 126.62 198.96C125.85 198.465 124.405 193.829 123.779 191.573L129.003 192.772L142.978 189.988C144.475 193.185 147.661 199.942 148.431 201.397C149.201 202.851 149.699 206.257 149.851 207.778L155.533 224.408L156.999 235.005C157.626 234.476 159.071 233.296 159.84 232.801C160.61 232.306 163.002 229.655 164.102 228.392L168.821 230.557L175.42 235.005L173.358 224.408L171.433 216.789L168.821 206.386L164.102 194.783V191.573L165.98 189.988L171.433 185.153L173.358 179.545Z" fill="#CBA893"/>
<path d="M120.283 149.854L123.924 141.576L118.528 144.551L104.841 149.854L109.842 154.079L113.345 154.774L116.203 154.079L118.528 152.227L120.283 149.854Z" fill="#603C31"/>
<path d="M175.42 236.581L173.225 232.29C171.24 230.755 167.435 229.731 167.021 230.371L163.252 228.752L159.864 232.29L155.665 234.662L154.424 236.581V238.538H155.665H161.725L170.743 240.307L175.42 242.829V240.307V236.581Z" fill="#766D6D"/>
<path d="M165.924 244.394L176.819 243.414L169.607 239.72L161.233 238.137H154.424V239.72L157.299 241.68H159.922L163.302 243.414L165.924 244.394Z" fill="black"/>
<path d="M141.826 224.292L136.671 217.803L129.616 219.134L123.782 220.424L122.606 224.292L120.028 226.206L118.852 229.034L114.646 232.029L113.832 233.444L118.852 232.029L127.761 230.532L132.194 229.034L138.751 226.206L141.826 224.292Z" fill="#766D6D"/>
<path d="M143.226 225.787L139.994 220.931L130.779 227.658L122.393 229.261L113.832 231.801V235.008L115.841 233.627L125.101 231.801L137.112 229.261L143.226 225.787Z" fill="#E6E6E6"/>
<path d="M118.645 235.009L127.289 233.397L136.87 229.416L137.627 228.752L127.289 230.933L119.892 232.402L116.149 233.397L113.832 235.009H118.645Z" fill="black"/>
<path d="M175.42 242.829V240.962C173.323 240.235 168.637 237.437 166.663 236.721C164.69 236.005 160.294 235.281 158.342 235.009L154.424 236.721V238.783L155.44 237.616H160.471L171.598 240.962L175.42 242.829Z" fill="#E6E6E6"/>
<path d="M164.31 286.561L156.392 281.991L145.649 275.233L119.765 259.913L107.54 255.343H102.709L98.1868 256.764L94.2045 258.589L90.8858 261.87L90.0371 266.287L99.8537 272.046L117.357 281.991L145.649 296.698L148.983 300.269L156.392 302.266H160.976L166.718 300.269L169.821 294.317L167.922 290.324L164.31 286.561Z" fill="#5A5A5A"/>
<path d="M159.388 280.494V279.955C159.322 279.789 159.217 279.57 159.164 279.489C159 279.238 158.576 279.079 158.211 278.919C158.083 278.863 157.884 278.838 157.738 278.79C157.586 278.741 157.483 278.674 157.342 278.618C157.059 278.505 156.851 278.338 156.554 278.231C156.314 278.145 155.861 278.172 155.579 278.172C155.206 278.172 154.781 278.175 154.48 278.301C154.247 278.399 153.894 278.375 153.894 278.574C153.894 278.801 153.799 279.087 153.9 279.308C154.129 279.804 154.703 280.354 155.564 280.653C155.954 280.788 156.362 280.879 156.753 281.01C156.933 281.07 157.156 281.125 157.358 281.159C157.487 281.181 157.635 281.239 157.762 281.239C157.927 281.239 158.065 281.296 158.255 281.296C158.424 281.296 158.514 281.272 158.653 281.234L158.659 281.233C158.733 281.213 158.733 281.172 158.828 281.159C158.918 281.147 159.022 281.165 159.108 281.147C159.209 281.125 159.27 281.066 159.276 281.01C159.295 280.833 159.388 280.679 159.388 280.494Z" fill="#532D2D"/>
<path d="M157.151 280.833C157.443 280.833 157.737 280.427 157.879 280.258C157.989 280.18 158.145 280.091 157.983 279.984C157.851 279.897 157.859 279.797 157.7 279.71C157.371 279.532 157.016 279.299 156.504 279.273C156.103 279.253 155.86 279.309 155.498 279.375C155.1 279.448 155.284 279.854 155.383 280.01C155.514 280.218 155.957 280.357 156.111 280.559C156.246 280.738 156.83 280.833 157.151 280.833Z" fill="#1F1E1D"/>
<path d="M157.993 281.668C158.156 281.6 158.356 281.433 158.526 281.331C158.407 281.3 158.213 281.285 158.145 281.284C157.696 281.276 157.125 281.163 156.723 281.034C156.019 280.81 155.196 280.557 154.8 280.133C154.664 279.988 154.542 279.818 154.542 279.642C154.542 279.489 154.607 279.256 154.518 279.112C154.479 279.049 154.504 278.839 154.378 278.808C154.295 278.788 154.115 278.914 154.044 278.935C153.756 279.02 153.484 279.208 153.261 279.347C152.877 279.586 153.031 279.901 153.225 280.197C153.336 280.368 153.575 280.621 153.794 280.746C153.967 280.844 154.189 280.928 154.376 281.02C154.547 281.104 154.778 281.303 154.979 281.345C155.184 281.387 155.343 281.48 155.548 281.527C155.759 281.576 155.952 281.61 156.172 281.64C156.483 281.683 156.788 281.804 157.06 281.877L157.066 281.878C157.21 281.917 157.275 281.934 157.434 281.934C157.575 281.934 157.596 281.852 157.716 281.814C157.807 281.786 157.901 281.706 157.993 281.668Z" fill="#C2814B"/>
<path d="M119.325 257.45C119.274 257.236 119.479 256.611 119.099 256.589C119.016 256.541 118.865 256.453 118.821 256.393C118.663 256.176 118.423 256.043 118.206 255.887C118.139 255.838 118.103 255.763 118.008 255.736C117.932 255.715 117.84 255.719 117.77 255.683C117.559 255.576 117.307 255.372 117.036 255.359C116.567 255.335 116.129 255.341 115.662 255.359C115.499 255.365 115.334 255.352 115.171 255.359C115.07 255.363 115.033 255.427 114.926 255.427C114.84 255.427 114.772 255.417 114.705 255.461C114.607 255.524 114.404 255.666 114.279 255.691C114.205 255.706 114.106 255.679 114.038 255.702C113.984 255.72 114.015 255.843 113.991 255.883C113.855 256.11 113.832 256.366 113.832 256.616C113.832 256.87 113.916 257.022 114.078 257.244C114.119 257.301 114.104 257.439 114.214 257.463C114.321 257.486 114.479 257.571 114.589 257.618C114.786 257.703 115.018 257.748 115.196 257.858C115.335 257.943 115.972 258.144 116.156 258.144C116.219 258.187 116.326 258.189 116.376 258.228C116.439 258.275 116.424 258.332 116.53 258.346C116.89 258.396 117.421 258.539 117.782 258.433C118.074 258.348 118.357 258.28 118.675 258.28C118.911 258.28 119.2 258.263 119.342 258.124C119.529 257.94 119.37 257.641 119.325 257.45Z" fill="#532D2D"/>
<path d="M118.973 258.483C119.051 258.454 119.129 258.356 119.188 258.291C119.3 258.26 119.42 258.182 119.43 258.104C119.434 258.079 119.428 258.058 119.415 258.042C119.377 257.995 119.279 257.988 119.187 258.02C119.007 258.082 118.902 258.169 118.687 258.171C118.403 258.173 118.118 258.171 117.833 258.171C117.239 258.171 116.669 258.189 116.105 258.077C115.664 257.989 115.357 257.721 114.957 257.598C114.739 257.532 114.506 257.458 114.302 257.368C114.147 257.3 114.067 257.252 113.961 257.14C113.836 257.007 113.79 256.712 113.87 256.56C113.923 256.459 114.205 255.806 113.931 255.806C113.65 255.806 113.422 255.797 113.276 255.996C113.225 256.066 113.114 256.094 113.063 256.163C113.014 256.229 112.992 256.248 112.899 256.286C112.758 256.344 112.67 256.434 112.506 256.474C112.288 256.528 112.623 256.902 112.653 257C112.732 257.262 113.054 257.464 113.217 257.702C113.265 257.774 113.349 257.884 113.46 257.902C113.755 257.95 114.046 257.996 114.336 258.067C114.608 258.134 114.796 258.284 115.04 258.394C115.258 258.492 115.48 258.572 115.723 258.642C116.014 258.726 116.313 258.755 116.606 258.819C116.94 258.893 117.331 258.955 117.683 258.928C118.023 258.902 118.216 258.7 118.544 258.639C118.691 258.612 118.836 258.533 118.973 258.483Z" fill="#C2814B"/>
<path d="M46.5173 193.845L48.0088 192.47L46.5173 189.948L43.7206 187.885H42.0893L41.1104 188.848L40.4579 192.47L39.7121 193.845L40.4579 195.588L43.0681 197.147H44.8859L46.5173 196.505L45.6317 195.588L43.7206 194.716L43.0681 193.845L44.8859 192.47L46.5173 193.845Z" fill="#A1504C"/>
<path d="M133.541 155.863L127.965 153.673V155.863H125.369L123.494 153.673L120.129 159.161L117.918 157.199L115.707 160.27H113.832V162.915L119.408 165.332L123.494 167.75H131.666L137.627 165.332V162.915V160.27L133.541 158.081V155.863Z" fill="white" stroke="black"/>
</svg>
